<?xml version="1.0" encoding="UTF-8"?>
<svg id="Capa_2" data-name="Capa 2" xmlns="http://www.w3.org/2000/svg" viewBox="0 0 230 270.78">
  <defs>
    <style>
      .cls-1 {
        fill: #071f5d;
        stroke-width: 0px;
      }
    </style>
  </defs>
  <g id="Capa_1-2" data-name="Capa 1">
    <g>
      <path class="cls-1" d="m66.47,56.4H4.49c-1.92,0-3.64-1.22-4.25-3.04-.62-1.82,0-3.83,1.52-5L63.75.92c1.36-1.03,3.18-1.21,4.71-.46,1.53.76,2.5,2.31,2.5,4.02v47.43c0,2.47-2.02,4.48-4.49,4.48Zm-48.76-8.96h44.28V13.55L17.71,47.43Z"/>
      <path class="cls-1" d="m123.54,73.2h-50.44c-2.47,0-4.48-2.01-4.48-4.48s2.01-4.48,4.48-4.48h50.44c2.47,0,4.48,2.01,4.48,4.48s-2.01,4.48-4.48,4.48Z"/>
      <path class="cls-1" d="m151.33,100.23H45.31c-2.47,0-4.48-2.01-4.48-4.48s2.01-4.48,4.48-4.48h106.02c2.48,0,4.49,2.01,4.49,4.48s-2.01,4.48-4.49,4.48Z"/>
      <path class="cls-1" d="m122.91,127.26H45.31c-2.47,0-4.48-2.01-4.48-4.48s2.01-4.48,4.48-4.48h77.6c2.47,0,4.48,2.01,4.48,4.48s-2.01,4.48-4.48,4.48Z"/>
      <path class="cls-1" d="m174.2,218.86h-22.25c-2.47,0-4.47-2.01-4.47-4.48v-26.82h-26.82c-2.47,0-4.48-2.01-4.48-4.48v-22.25c0-2.47,2.01-4.48,4.48-4.48h26.82v-26.82c0-2.48,2.01-4.48,4.47-4.48h22.25c2.48,0,4.48,2.01,4.48,4.48v26.82h26.82c2.47,0,4.48,2.01,4.48,4.48v22.25c0,2.48-2.01,4.48-4.48,4.48h-26.82v26.82c0,2.47-2.01,4.48-4.48,4.48Zm-17.77-8.96h13.29v-26.82c0-2.47,2.01-4.48,4.48-4.48h26.82v-13.29h-26.82c-2.47,0-4.48-2.01-4.48-4.48v-26.82h-13.29v26.82c0,2.48-2.01,4.48-4.49,4.48h-26.82v13.29h26.82c2.48,0,4.49,2.01,4.49,4.48v26.82Z"/>
      <path class="cls-1" d="m208.94,270.78H21.27c-2.48,0-4.48-2.01-4.48-4.48v-15.98c0-2.48,2.01-4.48,4.48-4.48h166.4v-18.65c0-1.67.92-3.19,2.39-3.96,5.79-3.05,11.03-7.11,15.59-12.04,1.24-1.36,3.2-1.82,4.93-1.14,1.71.67,2.84,2.33,2.84,4.18v52.08c0,2.47-2.01,4.48-4.48,4.48Zm-183.19-8.96h178.71v-37.34c-2.48,1.97-5.09,3.75-7.83,5.34v20.5c0,2.47-2.01,4.48-4.48,4.48H25.75v7.02Z"/>
      <path class="cls-1" d="m208.94,134.17c-1.23,0-2.43-.5-3.3-1.44-4.56-4.94-9.79-8.99-15.59-12.04-1.47-.78-2.39-2.3-2.39-3.96V20.46c0-2.47,2.02-4.48,4.48-4.48h16.78c2.48,0,4.48,2.01,4.48,4.48v24.11c0,2.47-2.01,4.48-4.48,4.48s-4.48-2.01-4.48-4.48v-19.62h-7.83v89.14c2.74,1.59,5.34,3.37,7.83,5.34v-35.93c0-2.48,2.01-4.48,4.48-4.48s4.48,2.01,4.48,4.48v46.2c0,1.85-1.13,3.51-2.84,4.18-.53.21-1.09.31-1.64.31Z"/>
      <path class="cls-1" d="m192.16,254.8H4.49c-2.48,0-4.49-2.01-4.49-4.48V51.92c0-1.4.65-2.71,1.76-3.56L63.75.92c.79-.6,1.74-.92,2.73-.92h125.68c2.47,0,4.48,2.01,4.48,4.48v112.23c0,1.57-.82,3.03-2.16,3.84-1.35.81-3.02.86-4.41.12-8.41-4.44-17.49-6.69-26.99-6.69-31.95,0-57.96,26-57.96,57.96s26,57.96,57.96,57.96c9.5,0,18.57-2.25,26.99-6.69,1.39-.74,3.06-.69,4.41.12,1.34.81,2.16,2.27,2.16,3.84v23.13c0,2.47-2.01,4.48-4.48,4.48Zm-183.19-8.96h178.7v-11.67c-7.82,3.09-16.2,4.7-24.6,4.7-36.9,0-66.92-30.02-66.92-66.92s30.02-66.92,66.92-66.92c8.41,0,16.79,1.61,24.6,4.7V8.96h-119.68L8.97,54.13v191.71Z"/>
      <path class="cls-1" d="m163.07,238.88c-36.9,0-66.92-30.02-66.92-66.92s30.02-66.92,66.92-66.92,66.93,30.02,66.93,66.92-30.02,66.92-66.93,66.92Zm0-124.88c-31.95,0-57.96,26-57.96,57.96s26,57.96,57.96,57.96,57.96-26,57.96-57.96-26-57.96-57.96-57.96Z"/>
      <path class="cls-1" d="m39.94,218.86c-2.16,0-4.43-.49-6.46-1.95-5.62-4.03-4.77-11.96-4.15-17.76.62-5.74,1.64-15.36,8.45-16.6,2.6-.49,5.52.53,7.99,2.77,3.06,2.77,4.7,6.75,4.39,10.64-.49,6.13-5.65,11.12-12,11.6-.11,1,.12,1.76.55,2.07,1.15.83,4.75-.39,5.93-.79,1.68-.57,2.42-1.11,5.01-3.06,1.26-.95,2.83-2.14,4.99-3.66,8.52-6.01,12.9-8.21,16.36-5.38,2.57,2.1,2.01,5.14,1.77,6.43-.11.58-.22,1.17-.13,1.46.19.58,1.73,1.92,6.29,2.93,2.43.53,3.94,2.93,3.42,5.34-.54,2.42-2.93,3.95-5.35,3.41-7.29-1.61-11.51-4.55-12.91-8.98-.08-.22-.13-.43-.18-.65-1.09.69-2.43,1.59-4.1,2.77-2.06,1.44-3.56,2.58-4.76,3.48-2.75,2.08-4.42,3.34-7.53,4.4-1.73.59-4.56,1.54-7.57,1.54Zm-.21-26.92c-.41,1.07-.87,3.01-1.3,6.49,1.51-.47,2.67-1.74,2.79-3.2.12-1.4-.74-2.61-1.49-3.3Z"/>
    </g>
  </g>
</svg>