<?xml version="1.0" encoding="UTF-8"?>
<svg id="Capa_2" data-name="Capa 2" xmlns="http://www.w3.org/2000/svg" viewBox="0 0 230 301.63">
  <defs>
    <style>
      .cls-1 {
        fill: #071f5d;
        stroke-width: 0px;
      }
    </style>
  </defs>
  <g id="Capa_1-2" data-name="Capa 1">
    <g>
      <path class="cls-1" d="m174.61,54.46H55.38c-7.1,0-12.86-5.77-12.86-12.86V12.86c0-7.09,5.77-12.86,12.86-12.86h119.23c7.1,0,12.86,5.77,12.86,12.86v28.73c0,7.1-5.77,12.86-12.86,12.86ZM55.38,10.19c-1.47,0-2.68,1.2-2.68,2.67v28.73c0,1.48,1.2,2.68,2.68,2.68h119.23c1.48,0,2.68-1.2,2.68-2.68V12.86c0-1.47-1.2-2.67-2.68-2.67H55.38Z"/>
      <path class="cls-1" d="m139.05,54.46h-48.1c-4.92,0-8.23-5.17-8.23-12.86V12.86c0-7.69,3.31-12.86,8.23-12.86h48.1c4.92,0,8.22,5.17,8.22,12.86v28.73c0,7.7-3.31,12.86-8.22,12.86Zm-45.87-10.19h43.63c.15-.66.27-1.57.27-2.68V12.86c0-1.1-.12-2.01-.27-2.67h-43.63c-.15.66-.27,1.57-.27,2.67v28.73c0,1.1.12,2.02.27,2.68Z"/>
      <path class="cls-1" d="m209.38,256.22h-68.79c-17.49,0-31.71-14.23-31.71-31.71v-98c0-17.49,14.23-31.72,31.71-31.72h59.98c2.05,0,3.91,1.24,4.7,3.13,6.11,14.61,9.21,30.01,9.21,45.77v107.44c0,2.81-2.28,5.09-5.1,5.09Zm-68.79-151.24c-11.87,0-21.53,9.66-21.53,21.53v98c0,11.87,9.66,21.53,21.53,21.53h63.7v-102.35c0-13.28-2.41-26.28-7.17-38.71h-56.53Z"/>
      <path class="cls-1" d="m209.38,214.28h-22.33c-2.81,0-5.09-2.29-5.09-5.1v-17.22h-17.23c-2.81,0-5.1-2.29-5.1-5.1v-22.73c0-2.82,2.29-5.1,5.1-5.1h17.23v-17.23c0-2.81,2.28-5.09,5.09-5.09h22.3c2.79,0,5.06,2.24,5.09,5.03l.04,1.93v65.5c0,2.81-2.28,5.1-5.1,5.1Zm-17.24-10.19h12.15v-57.18h-12.15v17.23c0,2.81-2.28,5.09-5.1,5.09h-17.22v12.54h17.22c2.82,0,5.1,2.28,5.1,5.09v17.23Z"/>
      <path class="cls-1" d="m224.9,301.63H5.1c-2.82,0-5.1-2.28-5.1-5.09s2.28-5.1,5.1-5.1h219.81c2.82,0,5.1,2.28,5.1,5.1s-2.28,5.09-5.1,5.09Z"/>
      <path class="cls-1" d="m20.61,243.55c-2.82,0-5.1-2.28-5.1-5.09v-8.15c0-2.81,2.28-5.09,5.1-5.09s5.09,2.28,5.09,5.09v8.15c0,2.81-2.28,5.09-5.09,5.09Z"/>
      <path class="cls-1" d="m20.61,206.53c-2.82,0-5.1-2.29-5.1-5.1v-14.44c0-2.82,2.28-5.1,5.1-5.1s5.09,2.28,5.09,5.1v14.44c0,2.81-2.28,5.1-5.09,5.1Z"/>
      <path class="cls-1" d="m20.61,163.22c-2.82,0-5.1-2.29-5.1-5.1v-8.15c0-2.82,2.28-5.1,5.1-5.1s5.09,2.28,5.09,5.1v8.15c0,2.81-2.28,5.1-5.09,5.1Z"/>
      <path class="cls-1" d="m185.39,301.63H44.61c-16.04,0-29.1-13.05-29.1-29.1v-34.07c0-2.82,2.28-5.1,5.1-5.1s5.09,2.28,5.09,5.1v34.07c0,10.43,8.48,18.91,18.91,18.91h140.78c10.43,0,18.91-8.48,18.91-18.91v-128.85c0-26.52-9.69-52.07-27.28-71.92l-15.33-17.3h-93.37l-15.33,17.3c-17.59,19.86-27.28,45.4-27.28,71.92v6.29c0,2.81-2.28,5.09-5.09,5.09s-5.1-2.28-5.1-5.09v-6.29c0-29.02,10.6-56.96,29.84-78.68l16.85-19.01c.96-1.09,2.36-1.72,3.81-1.72h97.96c1.46,0,2.84.63,3.81,1.72l16.85,19.01c19.24,21.72,29.84,49.66,29.84,78.68v128.85c0,16.04-13.05,29.1-29.1,29.1Z"/>
    </g>
  </g>
</svg>