<?xml version="1.0" encoding="UTF-8"?>
<svg id="Capa_2" data-name="Capa 2" xmlns="http://www.w3.org/2000/svg" viewBox="0 0 230 190.84">
  <defs>
    <style>
      .cls-1 {
        fill: #071f5d;
        stroke-width: 0px;
      }
    </style>
  </defs>
  <g id="Capa_1-2" data-name="Capa 1">
    <g>
      <path class="cls-1" d="m174.9,190.84H55.1c-2.12,0-3.85-1.72-3.85-3.85V52.64c0-1.16.52-2.25,1.42-2.98L112.57.86c1.41-1.15,3.44-1.15,4.86,0l59.9,48.79c.9.73,1.42,1.82,1.42,2.98v134.35c0,2.13-1.73,3.85-3.85,3.85Zm-115.96-7.7h112.11V54.46L115,8.81l-56.05,45.65v128.68Z"/>
      <path class="cls-1" d="m142.59,56.49H55.1c-2.12,0-3.85-1.72-3.85-3.85s1.72-3.85,3.85-3.85h87.49c2.13,0,3.85,1.72,3.85,3.85s-1.72,3.85-3.85,3.85Z"/>
      <path class="cls-1" d="m226.15,73.26h-32.78c-2.12,0-3.85-1.73-3.85-3.85s1.72-3.85,3.85-3.85h23.69l-24.4-25.18h-37.54c-2.12,0-3.85-1.72-3.85-3.85s1.72-3.85,3.85-3.85h39.17c1.04,0,2.04.42,2.76,1.17l31.86,32.88c1.07,1.11,1.38,2.76.78,4.18-.6,1.42-2,2.35-3.55,2.35Z"/>
      <path class="cls-1" d="m216.46,190.84h-41.55c-2.12,0-3.85-1.72-3.85-3.85s1.72-3.85,3.85-3.85h37.7v-113.73c0-2.12,1.72-3.85,3.85-3.85s3.85,1.73,3.85,3.85v117.58c0,2.13-1.72,3.85-3.85,3.85Z"/>
      <path class="cls-1" d="m216.46,105.69h-41.55c-2.12,0-3.85-1.73-3.85-3.85v-15.24c0-2.13,1.72-3.85,3.85-3.85h41.55c2.12,0,3.85,1.72,3.85,3.85v15.24c0,2.12-1.72,3.85-3.85,3.85Zm-37.7-7.7h33.85v-7.55h-33.85v7.55Z"/>
      <path class="cls-1" d="m134.39,189.26h-38.78c-2.12,0-3.85-1.72-3.85-3.85v-24.59c0-2.12,1.72-3.85,3.85-3.85h38.78c2.13,0,3.85,1.72,3.85,3.85v24.59c0,2.13-1.72,3.85-3.85,3.85Zm-34.93-7.7h31.09v-16.89h-31.09v16.89Z"/>
      <path class="cls-1" d="m216.46,139.97h-41.55c-2.12,0-3.85-1.72-3.85-3.85v-15.24c0-2.12,1.72-3.85,3.85-3.85h41.55c2.12,0,3.85,1.72,3.85,3.85v15.24c0,2.13-1.72,3.85-3.85,3.85Zm-37.7-7.7h33.85v-7.54h-33.85v7.54Z"/>
      <path class="cls-1" d="m216.46,174.25h-41.55c-2.12,0-3.85-1.72-3.85-3.85v-15.23c0-2.13,1.72-3.85,3.85-3.85h41.55c2.12,0,3.85,1.72,3.85,3.85v15.23c0,2.13-1.72,3.85-3.85,3.85Zm-37.7-7.7h33.85v-7.54h-33.85v7.54Z"/>
      <path class="cls-1" d="m36.63,73.26H3.85c-1.55,0-2.94-.93-3.55-2.35-.6-1.42-.3-3.07.78-4.18l31.85-32.88c.72-.75,1.72-1.17,2.76-1.17h39.17c2.12,0,3.85,1.72,3.85,3.85s-1.73,3.85-3.85,3.85h-37.54l-24.4,25.18h23.69c2.12,0,3.85,1.73,3.85,3.85s-1.73,3.85-3.85,3.85Z"/>
      <path class="cls-1" d="m55.1,190.84H13.55c-2.13,0-3.85-1.72-3.85-3.85v-117.58c0-2.12,1.72-3.85,3.85-3.85s3.85,1.73,3.85,3.85v113.73h37.7c2.13,0,3.85,1.72,3.85,3.85s-1.72,3.85-3.85,3.85Z"/>
      <path class="cls-1" d="m55.1,105.69H13.55c-2.13,0-3.85-1.73-3.85-3.85v-15.24c0-2.13,1.72-3.85,3.85-3.85h41.55c2.13,0,3.85,1.72,3.85,3.85v15.24c0,2.12-1.72,3.85-3.85,3.85Zm-37.7-7.7h33.86v-7.55H17.39v7.55Z"/>
      <path class="cls-1" d="m55.1,139.97H13.55c-2.13,0-3.85-1.72-3.85-3.85v-15.24c0-2.12,1.72-3.85,3.85-3.85h41.55c2.13,0,3.85,1.72,3.85,3.85v15.24c0,2.13-1.72,3.85-3.85,3.85Zm-37.7-7.7h33.86v-7.54H17.39v7.54Z"/>
      <path class="cls-1" d="m55.1,174.25H13.55c-2.13,0-3.85-1.72-3.85-3.85v-15.23c0-2.13,1.72-3.85,3.85-3.85h41.55c2.13,0,3.85,1.72,3.85,3.85v15.23c0,2.13-1.72,3.85-3.85,3.85Zm-37.7-7.7h33.86v-7.54H17.39v7.54Z"/>
      <path class="cls-1" d="m104.71,91.55h-30.28c-2.13,0-3.85-1.72-3.85-3.85v-15.24c0-2.12,1.72-3.85,3.85-3.85h30.28c2.12,0,3.85,1.72,3.85,3.85v15.24c0,2.13-1.72,3.85-3.85,3.85Zm-26.43-7.7h22.58v-7.54h-22.58v7.54Z"/>
      <path class="cls-1" d="m155.57,91.55h-30.28c-2.12,0-3.85-1.72-3.85-3.85v-15.24c0-2.12,1.72-3.85,3.85-3.85h30.28c2.13,0,3.85,1.72,3.85,3.85v15.24c0,2.13-1.72,3.85-3.85,3.85Zm-26.43-7.7h22.58v-7.54h-22.58v7.54Z"/>
      <path class="cls-1" d="m104.71,119.43h-30.28c-2.13,0-3.85-1.73-3.85-3.85v-15.24c0-2.13,1.72-3.85,3.85-3.85h30.28c2.12,0,3.85,1.72,3.85,3.85v15.24c0,2.12-1.72,3.85-3.85,3.85Zm-26.43-7.7h22.58v-7.55h-22.58v7.55Z"/>
      <path class="cls-1" d="m155.57,119.43h-30.28c-2.12,0-3.85-1.73-3.85-3.85v-15.24c0-2.13,1.72-3.85,3.85-3.85h30.28c2.13,0,3.85,1.72,3.85,3.85v15.24c0,2.12-1.72,3.85-3.85,3.85Zm-26.43-7.7h22.58v-7.55h-22.58v7.55Z"/>
      <path class="cls-1" d="m104.71,147.3h-30.28c-2.13,0-3.85-1.72-3.85-3.85v-15.24c0-2.12,1.72-3.85,3.85-3.85h30.28c2.12,0,3.85,1.72,3.85,3.85v15.24c0,2.13-1.72,3.85-3.85,3.85Zm-26.43-7.7h22.58v-7.54h-22.58v7.54Z"/>
      <path class="cls-1" d="m155.57,147.3h-30.28c-2.12,0-3.85-1.72-3.85-3.85v-15.24c0-2.12,1.72-3.85,3.85-3.85h30.28c2.13,0,3.85,1.72,3.85,3.85v15.24c0,2.13-1.72,3.85-3.85,3.85Zm-26.43-7.7h22.58v-7.54h-22.58v7.54Z"/>
      <path class="cls-1" d="m226.15,190.84H3.85c-2.13,0-3.85-1.72-3.85-3.85s1.72-3.85,3.85-3.85h222.3c2.13,0,3.85,1.72,3.85,3.85s-1.72,3.85-3.85,3.85Z"/>
    </g>
  </g>
</svg>