<?xml version="1.0" encoding="UTF-8"?>
<svg id="Capa_2" data-name="Capa 2" xmlns="http://www.w3.org/2000/svg" viewBox="0 0 230 163.48">
  <defs>
    <style>
      .cls-1 {
        fill: #071f5d;
        stroke-width: 0px;
      }
    </style>
  </defs>
  <g id="Capa_1-2" data-name="Capa 1">
    <g>
      <path class="cls-1" d="m183.84,32.63H3.71c-2.05,0-3.71-1.66-3.71-3.7s1.66-3.71,3.71-3.71h180.13c2.05,0,3.71,1.66,3.71,3.71s-1.66,3.7-3.71,3.7Z"/>
      <path class="cls-1" d="m26.82,17.15c0-2.38-1.93-4.31-4.31-4.31s-4.31,1.93-4.31,4.31,1.93,4.31,4.31,4.31,4.31-1.93,4.31-4.31Z"/>
      <path class="cls-1" d="m43.26,17.15c0-2.38-1.93-4.31-4.31-4.31s-4.31,1.93-4.31,4.31,1.93,4.31,4.31,4.31,4.31-1.93,4.31-4.31Z"/>
      <path class="cls-1" d="m59.71,17.15c0-2.38-1.93-4.31-4.31-4.31s-4.31,1.93-4.31,4.31,1.93,4.31,4.31,4.31,4.31-1.93,4.31-4.31Z"/>
      <path class="cls-1" d="m98.27,20.86h-12.75c-2.04,0-3.71-1.66-3.71-3.71s1.66-3.7,3.71-3.7h12.75c2.04,0,3.7,1.66,3.7,3.7s-1.66,3.71-3.7,3.71Z"/>
      <path class="cls-1" d="m45.09,163.48H15.45c-8.52,0-15.45-6.93-15.45-15.46V15.45C0,6.93,6.93,0,15.45,0h185.81c8.52,0,15.45,6.93,15.45,15.45v18.64c0,2.05-1.66,3.71-3.71,3.71s-3.7-1.66-3.7-3.71V15.45c0-4.43-3.61-8.04-8.04-8.04H15.45c-4.44,0-8.04,3.61-8.04,8.04v132.57c0,4.44,3.61,8.05,8.04,8.05h29.64c2.05,0,3.71,1.66,3.71,3.71s-1.66,3.7-3.71,3.7Z"/>
      <path class="cls-1" d="m196.08,163.48h-77.9c-2.05,0-3.71-1.66-3.71-3.7s1.66-3.71,3.71-3.71h77.9c7.29,0,13.22-5.93,13.22-13.22v-13.66c0-2.05,1.66-3.71,3.7-3.71s3.71,1.66,3.71,3.71v13.66c0,11.38-9.26,20.63-20.63,20.63Z"/>
      <path class="cls-1" d="m141.97,20.86h-24.98c-2.05,0-3.71-1.66-3.71-3.71s1.66-3.7,3.71-3.7h24.98c2.05,0,3.71,1.66,3.71,3.7s-1.66,3.71-3.71,3.71Z"/>
      <path class="cls-1" d="m81.64,156.07c-18.53,0-33.57-24.14-33.57-39.9v-15.71c0-1.69,1.14-3.16,2.78-3.58.25-.06,24.86-6.5,34.73-15.56,1.37-1.26,3.47-1.3,4.9-.1.08.07,9.4,7.79,21.66,9.93,1.77.31,3.07,1.85,3.07,3.65v21.38c0,15.76-15.04,39.9-33.57,39.9Zm-26.16-52.79v12.89c0,12.22,12.67,32.49,26.16,32.49s26.16-20.27,26.16-32.49v-18.37c-8.93-2.17-16.03-6.52-19.6-9.04-9.75,7.39-26.17,12.63-32.72,14.51Z"/>
      <path class="cls-1" d="m118.19,163.48h-19.15c-2.04,0-3.71-1.66-3.71-3.7v-8.15c-8.8,5.83-18.6,5.83-27.39,0v8.15c0,2.04-1.66,3.7-3.71,3.7h-19.15c-.52,0-1.04-.11-1.51-.32-1.48-.66-8.88-4.27-8.88-10.07v-64.55c0-24.17,21.06-43.83,46.94-43.83s46.94,19.66,46.94,43.83v64.55c0,5.73-4.66,10.4-10.39,10.4Zm-15.44-7.41h15.44c1.64,0,2.98-1.34,2.98-2.99v-64.55c0-20.08-17.73-36.43-39.53-36.43s-39.53,16.34-39.53,36.43v64.55c.2.62,2,2.03,3.84,2.99h14.59v-12.4c0-1.51.92-2.87,2.32-3.44,1.41-.57,3.01-.21,4.06.88,3.29,3.44,8.52,7.55,14.73,7.55s11.43-4.11,14.72-7.55c1.05-1.09,2.65-1.44,4.05-.88,1.41.57,2.33,1.93,2.33,3.44v12.4Z"/>
      <path class="cls-1" d="m148.37,128.57c-4.25,0-6.99-.62-7.26-.69-1.58-.37-2.72-1.73-2.83-3.34-.11-1.61.84-3.12,2.34-3.71,5.38-2.11,9.17-6.92,11.33-10.38-8.73-7.56-13.68-17.87-13.68-28.71,0-22.24,20.57-40.33,45.87-40.33s45.87,18.09,45.87,40.33-20.58,40.33-45.87,40.33c-3.5,0-7.06-.38-10.6-1.12-9.62,6.3-18.99,7.62-25.16,7.62Zm35.76-79.76c-21.21,0-38.46,14.77-38.46,32.92,0,9.49,4.83,18.55,13.26,24.82,1.45,1.08,1.91,3.05,1.08,4.66-1.31,2.57-3.53,6.26-6.75,9.64,4.93-.66,11.11-2.48,17.39-6.9.88-.62,1.97-.82,3-.57,3.5.85,7.02,1.27,10.48,1.27,21.21,0,38.46-14.77,38.46-32.92s-17.25-32.92-38.46-32.92Z"/>
      <path class="cls-1" d="m190.63,105.3h-13c-2.05,0-3.71-1.66-3.71-3.71v-9.06h-9.06c-2.04,0-3.7-1.66-3.7-3.7v-13c0-2.04,1.66-3.71,3.7-3.71h9.06v-9.06c0-2.05,1.66-3.71,3.71-3.71h13c2.04,0,3.71,1.66,3.71,3.71v9.06h9.06c2.05,0,3.71,1.66,3.71,3.71v13c0,2.04-1.66,3.7-3.71,3.7h-9.06v9.06c0,2.05-1.66,3.71-3.71,3.71Zm-9.29-7.41h5.59v-9.06c0-2.05,1.66-3.71,3.71-3.71h9.06v-5.59h-9.06c-2.04,0-3.71-1.66-3.71-3.71v-9.06h-5.59v9.06c0,2.04-1.66,3.71-3.7,3.71h-9.06v5.59h9.06c2.04,0,3.7,1.66,3.7,3.71v9.06Z"/>
    </g>
  </g>
</svg>