<?xml version="1.0" encoding="UTF-8"?>
<svg id="Capa_2" data-name="Capa 2" xmlns="http://www.w3.org/2000/svg" viewBox="0 0 230 245.15">
  <defs>
    <style>
      .cls-1 {
        fill: #071f5d;
        stroke-width: 0px;
      }
    </style>
  </defs>
  <g id="Capa_1-2" data-name="Capa 1">
    <g>
      <path class="cls-1" d="m140.24,149.82c-.97,0-1.95-.34-2.73-1.04-3.43-3.04-6.19-7.57-8.25-13.5-9.16,3.35-19.37,3.35-28.52,0-2.05,5.93-4.82,10.45-8.25,13.5-1.71,1.51-4.3,1.36-5.82-.34-1.51-1.71-1.36-4.31.34-5.82,3.02-2.68,5.41-7.38,7.12-13.98.31-1.2,1.15-2.2,2.28-2.72,1.13-.51,2.44-.49,3.54.07,9.48,4.75,20.57,4.75,30.05,0,1.11-.56,2.42-.58,3.55-.07s1.97,1.51,2.28,2.72c1.71,6.6,4.1,11.3,7.12,13.98,1.7,1.51,1.86,4.11.34,5.82-.81.92-1.94,1.38-3.08,1.38Z"/>
      <path class="cls-1" d="m157.49,95.62c-2.31,0-4.57-.59-6.7-1.76-1.31-.72-2.14-2.11-2.14-3.61v-25.88c0-1.5.82-2.88,2.14-3.61,2.14-1.17,4.39-1.76,6.7-1.76,8.66,0,15.71,8.21,15.71,18.31s-7.05,18.31-15.71,18.31Zm-.6-8.27c4.25.49,8.08-4.31,8.08-10.04s-3.83-10.55-8.08-10.04v20.08Z"/>
      <path class="cls-1" d="m72.51,95.62c-8.66,0-15.71-8.21-15.71-18.31s7.04-18.31,15.71-18.31c2.31,0,4.57.59,6.7,1.76,1.32.73,2.14,2.11,2.14,3.61v25.88c0,1.5-.82,2.89-2.14,3.61-2.13,1.17-4.39,1.76-6.7,1.76Zm0-28.39c-4.05,0-7.47,4.62-7.47,10.08,0,5.73,3.81,10.55,8.08,10.04v-20.08c-.2-.02-.41-.04-.6-.04Z"/>
      <path class="cls-1" d="m115,137.81c-23.09,0-41.88-18.79-41.88-41.88v-40.37c0-1.28.6-2.5,1.62-3.27,1.02-.78,2.35-1.04,3.59-.7.16.05,16.12,4.44,26.3,7.6,16.92,5.24,42.06-3.71,45.39-6.7,1.21-1.08,2.94-1.35,4.43-.69,1.48.66,2.44,2.14,2.44,3.76v40.37c0,23.1-18.79,41.88-41.88,41.88Zm-33.65-76.83v34.95c0,18.56,15.09,33.65,33.65,33.65s33.65-15.09,33.65-33.65v-33.48c-10.7,4.59-30.61,9.52-46.46,4.61-6.46-2-15.3-4.52-20.84-6.08Z"/>
      <path class="cls-1" d="m180.88,245.15H53.01c-4.61,0-8.73-3.08-10.04-7.5l-.65-2.22c-.94-3.19-.34-6.56,1.65-9.23,1.99-2.67,5.05-4.2,8.39-4.2h129.18c3.34,0,6.39,1.53,8.39,4.2,2,2.67,2.6,6.04,1.65,9.23l-.65,2.22c-1.31,4.42-5.44,7.5-10.04,7.5Zm-128.52-14.92c-.97,0-1.54.56-1.79.9-.25.34-.63,1.03-.35,1.97l.65,2.22c.28.94,1.16,1.6,2.14,1.6h127.87c.98,0,1.86-.66,2.14-1.6l.66-2.22c.27-.94-.1-1.63-.35-1.97s-.82-.9-1.79-.9H52.35Z"/>
      <path class="cls-1" d="m216.58,245.15H13.43c-2.28,0-4.12-1.84-4.12-4.11v-36.22c0-34.86,28.36-63.23,63.23-63.23h17.23c1.64,0,3.12.97,3.77,2.48.66,1.5.35,3.25-.77,4.45-1.61,1.73-2.43,3.52-2.43,5.33,0,5.68,8.41,11.13,19.19,12.47h10.95c10.78-1.34,19.18-6.79,19.18-12.47,0-1.8-.82-3.59-2.43-5.33-1.12-1.2-1.42-2.94-.77-4.45.66-1.51,2.14-2.48,3.78-2.48h17.23c34.86,0,63.22,28.36,63.22,63.23v36.22c0,2.27-1.84,4.11-4.11,4.11Zm-199.04-8.23h194.92v-32.1c0-30.32-24.67-54.99-54.99-54.99h-10.15c.38,1.31.58,2.66.58,4.02,0,10.31-10.97,18.82-26.69,20.68-.16.02-.32.03-.48.03h-11.46c-.17,0-.32,0-.49-.03-15.71-1.86-26.69-10.36-26.69-20.68,0-1.36.19-2.71.58-4.02h-10.15c-30.32,0-54.99,24.67-54.99,54.99v32.1Z"/>
      <path class="cls-1" d="m96.95,230.23h-29.92c-2.28,0-4.12-1.84-4.12-4.11v-22.89c0-10.52,8.56-19.08,19.08-19.08s19.08,8.56,19.08,19.08v22.89c0,2.27-1.84,4.11-4.11,4.11Zm-25.81-8.23h21.69v-18.77c0-5.98-4.87-10.84-10.84-10.84s-10.85,4.86-10.85,10.84v18.77Z"/>
      <path class="cls-1" d="m136.85,230.23h-24.2c-2.28,0-4.12-1.84-4.12-4.11v-17.16c0-2.28,1.84-4.12,4.12-4.12h24.2c2.27,0,4.11,1.84,4.11,4.12v17.16c0,2.27-1.84,4.11-4.11,4.11Zm-20.08-8.23h15.96v-8.92h-15.96v8.92Z"/>
      <path class="cls-1" d="m173.79,230.23h-21.98c-2.27,0-4.12-1.84-4.12-4.11v-32.75c0-2.27,1.85-4.11,4.12-4.11h21.98c2.27,0,4.12,1.84,4.12,4.11v32.75c0,2.27-1.85,4.11-4.12,4.11Zm-17.87-8.23h13.75v-24.51h-13.75v24.51Z"/>
      <path class="cls-1" d="m81.99,192.38c-2.28,0-4.12-1.84-4.12-4.12v-4.25c0-2.28,1.84-4.12,4.12-4.12s4.11,1.84,4.11,4.12v4.25c0,2.28-1.84,4.12-4.11,4.12Z"/>
      <path class="cls-1" d="m124.75,213.07c-2.28,0-4.12-1.84-4.12-4.11v-9.98c0-2.28,1.84-4.12,4.12-4.12s4.11,1.84,4.11,4.12v9.98c0,2.27-1.84,4.11-4.11,4.11Z"/>
      <path class="cls-1" d="m225.89,245.15H4.12c-2.28,0-4.12-1.84-4.12-4.11s1.84-4.12,4.12-4.12h221.77c2.27,0,4.11,1.84,4.11,4.12s-1.84,4.11-4.11,4.11Z"/>
      <path class="cls-1" d="m169.08,81.43c-2.27,0-4.12-1.85-4.12-4.12,0-6.69-5.29-12.02-10.21-9.33-1.27.7-2.82.68-4.08-.07-1.25-.74-2.02-2.09-2.02-3.54v-1.93c-10.7,4.59-30.62,9.51-46.46,4.6-6.46-2-15.3-4.52-20.84-6.07v3.4c0,1.45-.77,2.8-2.02,3.54s-2.81.77-4.08.07c-4.95-2.71-10.22,2.63-10.22,9.33,0,2.27-1.84,4.12-4.11,4.12s-4.12-1.85-4.12-4.12v-28.67c-2.84-4.13-4.33-8.93-4.33-13.96,0-13.66,11.11-24.76,24.76-24.76,3.22,0,6.38.62,9.32,1.82,3.85-7.18,11.14-11.74,19.34-11.74,9.22,0,17.1,5.78,20.42,14.11,5.42-3.54,12.87-4.23,19.01-1.5,3.55-2.44,7.72-3.75,12.01-3.75,11.81,0,21.41,9.6,21.41,21.41,0,5.35-1.96,10.37-5.55,14.32v32.72c0,2.27-1.85,4.12-4.12,4.12Zm-11.59-22.43c2.7,0,5.25.8,7.47,2.21v-18.31c0-1.14.48-2.24,1.32-3.02,2.74-2.54,4.24-5.96,4.24-9.61,0-7.27-5.91-13.18-13.18-13.18-3.22,0-6.35,1.23-8.81,3.46-1.37,1.25-3.42,1.42-4.98.42-1.9-1.21-4.08-1.85-6.32-1.85-4.04,0-7.72,2.02-9.85,5.4-.96,1.54-2.81,2.26-4.56,1.79-1.75-.47-2.98-2.03-3.04-3.84-.26-7.98-6.35-14.24-13.87-14.24-6.15,0-11.49,4.18-13.31,10.4-.37,1.26-1.31,2.27-2.54,2.72-1.23.45-2.6.29-3.69-.44-2.72-1.8-5.87-2.75-9.13-2.75-9.11,0-16.53,7.41-16.53,16.53,0,3.68,1.2,7.17,3.47,10.1.56.72.86,1.61.86,2.52v13.91c2.39-1.51,5.2-2.31,8.08-2.2v-3.45c0-1.28.6-2.5,1.62-3.27,1.02-.78,2.35-1.04,3.59-.7.16.05,16.12,4.44,26.3,7.6,16.93,5.25,42.06-3.71,45.39-6.7,1.21-1.08,2.94-1.35,4.43-.69,1.48.66,2.44,2.14,2.44,3.76v3.45c.2,0,.41,0,.61,0Z"/>
    </g>
  </g>
</svg>