<?xml version="1.0" encoding="UTF-8"?>
<svg id="Capa_2" data-name="Capa 2" xmlns="http://www.w3.org/2000/svg" viewBox="0 0 230 318">
  <defs>
    <style>
      .cls-1 {
        fill: #071f5d;
        stroke-width: 0px;
      }
    </style>
  </defs>
  <g id="Capa_1-2" data-name="Capa 1">
    <g>
      <path class="cls-1" d="m225.91,318H4.09c-2.26,0-4.09-1.83-4.09-4.09V4.09C0,1.83,1.83,0,4.09,0h221.82c2.26,0,4.09,1.83,4.09,4.09v309.82c0,2.26-1.83,4.09-4.09,4.09Zm-217.73-8.18h213.64V8.19H8.18v301.64Z"/>
      <path class="cls-1" d="m159.86,70.55h-89.72c-2.26,0-4.09-1.82-4.09-4.09V31.96c0-2.26,1.83-4.09,4.09-4.09h26.01c3.36-7.28,10.72-12.14,18.85-12.14s15.5,4.86,18.85,12.14h26.01c2.26,0,4.09,1.83,4.09,4.09v34.51c0,2.26-1.82,4.09-4.09,4.09Zm-85.64-8.18h81.55v-26.33h-24.75c-1.82,0-3.43-1.21-3.93-2.96-1.56-5.41-6.53-9.18-12.09-9.18s-10.54,3.78-12.09,9.18c-.5,1.75-2.11,2.96-3.93,2.96h-24.75v26.33Z"/>
      <path class="cls-1" d="m198.19,290.9H31.81c-2.26,0-4.09-1.82-4.09-4.09V47.55c0-2.26,1.83-4.09,4.09-4.09h38.33c2.26,0,4.09,1.82,4.09,4.09v14.83h81.55v-14.83c0-2.26,1.83-4.09,4.09-4.09h38.33c2.26,0,4.09,1.82,4.09,4.09v239.27c0,2.26-1.82,4.09-4.09,4.09Zm-162.29-8.18h158.2V51.64h-30.15v14.83c0,2.26-1.82,4.09-4.09,4.09h-89.72c-2.26,0-4.09-1.82-4.09-4.09v-14.83h-30.15v231.08Z"/>
      <path class="cls-1" d="m89.05,138.04h-37.83c-2.26,0-4.09-1.82-4.09-4.09v-31.19c0-2.26,1.82-4.09,4.09-4.09h37.83c2.26,0,4.09,1.83,4.09,4.09v31.19c0,2.26-1.83,4.09-4.09,4.09Zm-33.74-8.18h29.65v-23.01h-29.65v23.01Z"/>
      <path class="cls-1" d="m89.05,193.26h-37.83c-2.26,0-4.09-1.83-4.09-4.09v-31.18c0-2.26,1.82-4.09,4.09-4.09h37.83c2.26,0,4.09,1.83,4.09,4.09v31.18c0,2.26-1.83,4.09-4.09,4.09Zm-33.74-8.18h29.65v-23.01h-29.65v23.01Z"/>
      <path class="cls-1" d="m89.05,248.47h-37.83c-2.26,0-4.09-1.83-4.09-4.09v-31.19c0-2.26,1.82-4.09,4.09-4.09h37.83c2.26,0,4.09,1.82,4.09,4.09v31.19c0,2.26-1.83,4.09-4.09,4.09Zm-33.74-8.18h29.65v-23.01h-29.65v23.01Z"/>
      <path class="cls-1" d="m176.98,114.62h-70.55c-2.26,0-4.09-1.82-4.09-4.09s1.83-4.09,4.09-4.09h70.55c2.26,0,4.09,1.83,4.09,4.09s-1.83,4.09-4.09,4.09Z"/>
      <path class="cls-1" d="m176.98,130.28h-70.55c-2.26,0-4.09-1.83-4.09-4.09s1.83-4.09,4.09-4.09h70.55c2.26,0,4.09,1.83,4.09,4.09s-1.83,4.09-4.09,4.09Z"/>
      <path class="cls-1" d="m176.98,169.84h-70.55c-2.26,0-4.09-1.83-4.09-4.09s1.83-4.09,4.09-4.09h70.55c2.26,0,4.09,1.82,4.09,4.09s-1.83,4.09-4.09,4.09Z"/>
      <path class="cls-1" d="m176.98,185.49h-70.55c-2.26,0-4.09-1.83-4.09-4.09s1.83-4.09,4.09-4.09h70.55c2.26,0,4.09,1.83,4.09,4.09s-1.83,4.09-4.09,4.09Z"/>
      <path class="cls-1" d="m176.98,225.05h-70.55c-2.26,0-4.09-1.83-4.09-4.09s1.83-4.09,4.09-4.09h70.55c2.26,0,4.09,1.83,4.09,4.09s-1.83,4.09-4.09,4.09Z"/>
      <path class="cls-1" d="m176.98,240.7h-70.55c-2.26,0-4.09-1.82-4.09-4.09s1.83-4.09,4.09-4.09h70.55c2.26,0,4.09,1.83,4.09,4.09s-1.83,4.09-4.09,4.09Z"/>
    </g>
  </g>
</svg>